<?xml version="1.0" standalone="no"?>
<!DOCTYPE svg PUBLIC "-//W3C//DTD SVG 20010904//EN"
 "http://www.w3.org/TR/2001/REC-SVG-20010904/DTD/svg10.dtd">
<svg version="1.0" xmlns="http://www.w3.org/2000/svg"
 width="700.000000pt" height="700.000000pt" viewBox="0 0 700.000000 700.000000"
 preserveAspectRatio="xMidYMid meet">
<metadata>
Created by potrace 1.11, written by Peter Selinger 2001-2013
</metadata>
<g transform="translate(0.000000,700.000000) scale(0.100000,-0.100000)"
fill="#000000" stroke="none">
<path d="M1444 6986 c-33 -7 -101 -31 -149 -54 -123 -59 -237 -172 -295 -293
-75 -158 -70 104 -70 -3139 0 -2521 2 -2924 15 -2985 46 -222 224 -414 455
-492 53 -17 148 -18 2316 -21 1444 -1 2271 1 2287 7 14 6 34 22 44 38 17 26
18 139 19 2593 1 2120 -1 2571 -12 2598 -10 24 -25 38 -52 49 l-38 15 0 143 0
144 36 14 c69 27 67 5 66 700 -1 583 -2 625 -19 650 -10 16 -29 32 -43 37 -40
16 -4483 11 -4560 -4z"/>
</g>
</svg>
