<svg height="512pt" viewBox="-68 0 512 512" width="512pt" xmlns="http://www.w3.org/2000/svg"><path d="m47.59375 7.515625c-22.136719 0-40.078125 17.941406-40.078125 40.078125v416.8125h360.703125v-456.890625zm0 0" fill="#ff8989"/><path d="m47.59375 7.515625c-22.136719 0-40.078125 17.941406-40.078125 40.078125v416.8125h64.125v-456.890625zm0 0" fill="#4bc0c0"/><path d="m47.59375 424.328125c-22.136719 0-40.078125 17.945313-40.078125 40.078125 0 22.136719 17.941406 40.078125 40.078125 40.078125h320.625v-80.15625zm0 0" fill="#fff6df"/><path d="m63.625 480.4375c-22.136719 0-40.078125-17.941406-40.078125-40.078125 0-2.988281.335937-5.898437.957031-8.703125-10.273437 7.257812-16.988281 19.214844-16.988281 32.75 0 22.136719 17.941406 40.078125 40.078125 40.078125h320.625v-24.046875zm0 0" fill="#ffedbf"/><path d="m320.125 472.421875-24.046875-16.03125-24.046875 16.03125v-48.09375h48.09375zm0 0" fill="#4bc0c0"/><path d="m320.125 264.015625v-176.34375c-17.707031 0-32.0625-14.355469-32.0625-32.0625h-136.265625c0 17.707031-14.355469 32.0625-32.0625 32.0625v176.34375c17.707031 0 32.0625 14.355469 32.0625 32.0625h136.265625c0-17.707031 14.355469-32.0625 32.0625-32.0625zm0 0" fill="#f4f0f9"/><path d="m272.03125 215.921875c-35.414062 0-64.125-28.710937-64.125-64.125 0-14.757813 4.996094-28.339844 13.375-39.179687-30.332031 5.085937-53.453125 31.449218-53.453125 63.226562 0 35.414062 28.710937 64.125 64.125 64.125 20.65625 0 39.019531-9.777344 50.75-24.949219-3.472656.582031-7.035156.902344-10.671875.902344zm0 0" fill="#ffdb7e"/><path d="m247.984375 223.9375c-35.414063 0-64.125-28.710938-64.125-64.125 0-13.617188 4.253906-26.234375 11.492187-36.613281-16.632812 11.582031-27.523437 30.835937-27.523437 52.644531 0 35.414062 28.710937 64.125 64.125 64.125 20.65625 0 39.019531-9.777344 50.75-24.949219-.925781.15625-1.855469.289063-2.789063.40625-9.402343 5.414063-20.300781 8.511719-31.929687 8.511719zm0 0" fill="#ffd15e"/><path d="m368.21875 102.867188c4.152344 0 7.515625-3.363282 7.515625-7.515626v-87.835937c0-4.152344-3.363281-7.515625-7.515625-7.515625h-320.625c-26.242188 0-47.59375 21.351562-47.59375 47.59375v416.8125c0 26.242188 21.351562 47.59375 47.59375 47.59375h320.625c4.152344 0 7.515625-3.363281 7.515625-7.515625v-372.394531c0-4.148438-3.363281-7.511719-7.515625-7.511719-4.148438 0-7.515625 3.363281-7.515625 7.511719v284.722656h-281.546875v-401.78125h281.546875v80.320312c0 4.152344 3.367187 7.515626 7.515625 7.515626zm-7.515625 394.101562h-313.109375c-17.957031 0-32.5625-14.605469-32.5625-32.5625 0-17.953125 14.605469-32.5625 32.5625-32.5625h216.921875v40.578125c0 5.882813 6.777344 9.527344 11.683594 6.253906l19.878906-13.253906 19.878906 13.253906c4.910157 3.273438 11.683594-.378906 11.683594-6.253906v-40.578125h33.0625zm-48.09375-65.125v26.539062l-12.363281-8.246093c-1.261719-.839844-2.714844-1.261719-4.167969-1.261719s-2.90625.421875-4.167969 1.261719l-12.363281 8.246093v-26.539062zm-248.484375-15.03125h-16.53125c-12.589844 0-24.042969 4.925781-32.5625 12.933594v-382.152344c0-17.957031 14.605469-32.5625 32.5625-32.5625h16.53125zm0 0"/><path d="m327.640625 87.671875c0-4.152344-3.367187-7.515625-7.515625-7.515625-13.535156 0-24.546875-11.011719-24.546875-24.546875 0-4.152344-3.367187-7.515625-7.515625-7.515625h-136.265625c-4.152344 0-7.515625 3.363281-7.515625 7.515625 0 13.535156-11.011719 24.546875-24.546875 24.546875-4.152344 0-7.515625 3.363281-7.515625 7.515625v176.34375c0 4.148437 3.363281 7.515625 7.515625 7.515625 13.535156 0 24.546875 11.011719 24.546875 24.546875 0 4.148437 3.363281 7.515625 7.515625 7.515625h136.265625c4.148438 0 7.515625-3.367188 7.515625-7.515625 0-13.535156 11.011719-24.546875 24.546875-24.546875 4.148438 0 7.515625-3.367188 7.515625-7.515625zm-15.03125 169.542969c-15.804687 3.050781-28.296875 15.542968-31.347656 31.347656h-122.664063c-3.054687-15.804688-15.542968-28.296875-31.347656-31.347656v-162.746094c15.804688-3.050781 28.292969-15.539062 31.347656-31.34375h122.667969c3.050781 15.804688 15.539063 28.292969 31.347656 31.34375v162.746094zm0 0"/><path d="m281.460938 207.609375c-3.15625.53125-6.328126.796875-9.429688.796875-31.214844 0-56.609375-25.394531-56.609375-56.609375 0-12.632813 4.082031-24.589844 11.804687-34.582031 4.101563-5.300782-.597656-13.109375-7.1875-12.007813-34.605468 5.800781-59.726562 35.507813-59.726562 70.636719 0 39.5 32.136719 71.640625 71.640625 71.640625 22.335937 0 43-10.15625 56.695313-27.867187 4.09375-5.296876-.597657-13.109376-7.1875-12.007813zm-49.507813 24.84375c-31.214844 0-56.609375-25.394531-56.609375-56.609375 0-21.457031 11.851562-40.347656 29.859375-49.941406-3.175781 8.167968-4.8125 16.894531-4.8125 25.894531 0 36.59375 27.574219 66.863281 63.039063 71.125-9.183594 6.167969-20.054688 9.53125-31.476563 9.53125zm0 0"/><path d="m320.125 328.640625h-208.40625c-4.152344 0-7.515625 3.367187-7.515625 7.515625 0 4.152344 3.363281 7.515625 7.515625 7.515625h208.40625c4.148438 0 7.515625-3.363281 7.515625-7.515625 0-4.148438-3.367187-7.515625-7.515625-7.515625zm0 0"/><path d="m111.71875 368.71875c-4.152344 0-7.515625 3.367188-7.515625 7.515625 0 4.152344 3.363281 7.515625 7.515625 7.515625h64.125c4.148438 0 7.515625-3.363281 7.515625-7.515625 0-4.148437-3.367187-7.515625-7.515625-7.515625zm0 0"/><path d="m320.125 368.71875h-112.21875c-4.148438 0-7.515625 3.367188-7.515625 7.515625 0 4.152344 3.367187 7.515625 7.515625 7.515625h112.21875c4.148438 0 7.515625-3.363281 7.515625-7.515625 0-4.148437-3.367187-7.515625-7.515625-7.515625zm0 0"/></svg>